<?xml version="1.0" standalone="no"?>
<!DOCTYPE svg PUBLIC "-//W3C//DTD SVG 20010904//EN"
 "http://www.w3.org/TR/2001/REC-SVG-20010904/DTD/svg10.dtd">
<svg version="1.0" xmlns="http://www.w3.org/2000/svg"
 width="800.000000pt" height="800.000000pt" viewBox="0 0 800.000000 800.000000"
 preserveAspectRatio="xMidYMid meet">
<metadata>
Created by potrace 1.11, written by Peter Selinger 2001-2013
</metadata>
<g transform="translate(0.000000,800.000000) scale(0.100000,-0.100000)"
fill="#000000" stroke="none">
<path d="M3870 7989 c-100 -12 -236 -51 -334 -98 -175 -82 -2261 -1290 -2416
-1399 -97 -67 -237 -216 -294 -311 -61 -102 -111 -232 -133 -353 -17 -86 -18
-197 -18 -1503 0 -1128 3 -1427 13 -1495 29 -185 102 -350 217 -490 106 -130
184 -184 757 -521 l348 -204 0 -311 c0 -171 5 -368 10 -437 30 -365 197 -621
501 -767 116 -55 221 -81 360 -87 213 -10 367 28 594 146 72 37 454 256 850
486 396 230 1069 621 1495 868 954 553 1023 594 1115 668 220 177 349 417 385
714 7 58 13 538 16 1353 7 1514 5 1558 -83 1772 -108 263 -322 467 -728 696
-66 37 -246 140 -400 229 -897 519 -1591 911 -1685 952 -110 47 -232 79 -348
92 -113 12 -115 12 -222 0z m232 -1078 c127 -49 226 -183 236 -319 4 -57 0
-78 -20 -129 -14 -34 -36 -74 -49 -90 -51 -63 -252 -206 -449 -321 -47 -27
-195 -113 -330 -192 -135 -79 -303 -177 -375 -218 -71 -41 -236 -136 -365
-210 -129 -75 -264 -152 -300 -173 l-65 -37 -2 -938 -3 -939 88 -49 c48 -27
128 -73 177 -102 151 -88 1279 -740 1302 -752 22 -12 169 70 1353 754 190 109
389 222 444 249 l99 50 101 0 c111 0 129 -6 222 -75 94 -71 160 -203 152 -304
-6 -67 -55 -172 -108 -230 -23 -25 -83 -72 -133 -104 -84 -54 -176 -108 -737
-432 -102 -59 -410 -236 -685 -395 -848 -489 -992 -572 -1243 -717 -134 -77
-267 -149 -295 -160 -141 -54 -260 9 -287 151 -6 32 -10 250 -10 530 l0 476
-502 285 c-546 310 -602 349 -653 455 -57 115 -55 64 -55 1311 0 1140 0 1153
21 1220 47 155 100 206 385 368 115 66 288 165 384 221 96 56 310 180 475 275
165 96 347 202 405 235 591 343 579 338 695 331 39 -2 95 -13 127 -25z m1029
-610 c80 -23 91 -29 303 -156 94 -56 286 -167 426 -245 140 -78 275 -158 298
-178 124 -100 177 -255 160 -464 -6 -62 -8 -282 -5 -489 6 -406 0 -493 -36
-573 -31 -66 -109 -144 -184 -181 -51 -26 -69 -30 -148 -30 -82 0 -96 3 -157
33 -114 56 -181 152 -209 296 -5 27 -9 117 -9 200 0 83 -3 167 -6 187 l-6 36
-43 -13 c-54 -16 -72 -25 -275 -139 -91 -51 -204 -115 -252 -142 -47 -26 -155
-87 -238 -135 -83 -49 -154 -88 -158 -88 -8 1 -102 165 -102 178 0 4 65 45
145 91 80 45 145 87 145 93 0 5 -25 55 -56 110 -56 99 -107 168 -126 168 -5 0
-55 -26 -111 -59 -56 -32 -112 -63 -124 -70 -21 -11 -25 -6 -67 66 -25 42 -43
80 -41 84 6 8 295 176 522 303 152 85 300 178 371 234 l23 18 -128 79 c-311
192 -377 260 -402 414 -29 180 64 333 228 377 70 19 187 17 262 -5z m-1054
-1677 c34 -60 62 -113 62 -119 1 -10 -186 -120 -202 -120 -9 0 -136 214 -136
230 0 12 189 124 204 121 6 -1 38 -52 72 -112z m319 -80 c20 -36 35 -66 33
-68 -17 -14 -150 -88 -153 -85 -2 2 -21 33 -41 67 -26 44 -34 67 -27 74 16 16
126 77 139 78 7 0 29 -29 49 -66z m-833 -169 c26 -47 47 -88 47 -92 0 -9 -144
-93 -159 -93 -5 0 -31 37 -58 83 -58 99 -57 97 -45 97 6 0 43 20 84 44 40 25
75 45 78 45 3 0 26 -38 53 -84z m372 -162 c25 -43 45 -80 45 -83 0 -3 -12 -12
-28 -20 -15 -9 -53 -31 -84 -48 l-57 -33 -45 78 c-25 43 -46 83 -46 88 0 11
137 92 157 94 7 1 33 -34 58 -76z m389 -23 c30 -52 54 -95 53 -96 -22 -15
-200 -114 -202 -112 -1 2 -26 45 -55 96 -37 64 -50 96 -42 104 16 16 176 107
185 105 4 -1 32 -45 61 -97z m-647 -386 c24 -42 41 -80 38 -84 -6 -10 -88 -57
-132 -75 l-32 -14 -32 57 c-18 31 -38 67 -46 79 -14 21 -11 23 64 67 43 25 83
46 88 46 6 0 29 -35 52 -76z"/>
<path d="M5172 4944 l-62 -35 30 -52 c17 -29 35 -58 39 -66 8 -13 16 -11 54 9
87 46 85 43 52 106 -17 30 -35 59 -40 64 -7 5 -35 -5 -73 -26z"/>
</g>
</svg>
