<?xml version="1.0" encoding="utf-8"?>
<!-- Generator: Adobe Illustrator 21.1.0, SVG Export Plug-In . SVG Version: 6.00 Build 0)  -->
<svg version="1.1" id="Layer_1" xmlns="http://www.w3.org/2000/svg" xmlns:xlink="http://www.w3.org/1999/xlink" x="0px" y="0px" xml:space="preserve" opacity=".1">
<style type="text/css">
	.st0{fill:#FFFFFF;}
	.st1{fill:#00629B;}
	.st2{opacity:0.3;fill:#FFFFFF;}
	.st3{opacity:0.9;fill:#FFFFFF;}
	.st4{opacity:0.2;fill:#FFFFFF;}
	.st5{opacity:0.8;fill:#FFFFFF;}
	.st6{opacity:0.5;fill:#FFFFFF;}
	.st7{opacity:0.6;fill:#FFFFFF;}
	.st8{opacity:0.5;fill:#F8F8F8;}
	.st9{opacity:0.3;fill:#D8DDE6;}
	.st10{opacity:0.8;fill:#D8DDE6;}
	.st11{opacity:0.7;fill:#D8DDE6;}
	.st12{fill:#D8DDE6;}
	.st13{fill:#F8F8F8;}
	.st14{opacity:0.4;fill:#FFFFFF;}
	.st15{opacity:0.6;fill:#F8F8F8;}
	.st16{opacity:0.5;fill:#D8DDE6;}
	.st17{opacity:0.2;fill:#D8DDE6;}
	.st18{opacity:0.4;fill:#D8DDE6;}
	.st19{opacity:0.3;fill:#F8F8F8;}
	.st20{opacity:0.6;fill:#D8DDE6;}
	.st21{opacity:9.000000e-02;fill:#D8DDE6;}
	.st22{opacity:0.9;fill:#D8DDE6;}
	.st23{fill:none;}
</style>
<g>
	<g>
		<g>
			<path class="st1" d="M32,1002.1c3.2,0,3.2-5,0-5C28.8,997.1,28.8,1002.1,32,1002.1L32,1002.1z"/>
		</g>
	</g>
	<g>
		<g>
			<path class="st1" d="M32,1002.1c3.2,0,3.2-5,0-5C28.8,997.1,28.8,1002.1,32,1002.1L32,1002.1z"/>
		</g>
	</g>
	<line class="st0" x1="0" y1="-689.4" x2="0" y2="1230.6"/>
	<line class="st0" x1="426.7" y1="-689.4" x2="426.7" y2="1230.6"/>
	<polygon class="st6" points="426.7,-41.7 426.7,282.1 213.3,120.2 	"/>
	<polygon class="st8" points="213.3,120.2 213.3,444 426.7,282.1 	"/>
	<polygon class="st9" points="213.3,282.1 213.3,605.9 426.7,444 	"/>
	<polygon class="st10" points="0,605.9 0,929.7 213.3,767.9 	"/>
	<polygon class="st11" points="213.3,767.8 213.3,1091.7 426.7,929.8 	"/>
	<polygon class="st12" points="426.7,605.9 426.7,929.7 640,767.9 	"/>
	<polygon class="st13" points="1066.7,444 1066.7,767.8 1280,606 	"/>
	<polygon class="st6" points="1280,-41.7 1280,282.1 1066.7,120.2 	"/>
	<polygon class="st0" points="106.7,-122.7 106.7,39.2 213.3,-41.7 	"/>
	<polygon class="st7" points="106.7,-122.7 106.7,39.2 0,-41.7 	"/>
	<polygon class="st6" points="0,-41.7 0,120.2 106.7,39.2 	"/>
	<polygon class="st9" points="0,120.2 0,282.1 106.7,201.2 	"/>
	<polygon class="st16" points="0,282.1 0,444 106.7,363.1 	"/>
	<polygon class="st10" points="0,444.3 0,606.2 106.7,525.3 	"/>
	<polygon class="st2" points="320,201.1 320,363 426.7,282.1 	"/>
	<polygon class="st15" points="426.7,120.2 426.7,282.1 533.3,201.2 	"/>
	<polygon class="st2" points="533.3,201.1 533.3,363 640,282.1 	"/>
	<polygon class="st17" points="106.7,201.1 106.7,363 213.3,282.1 	"/>
	<polygon class="st15" points="533.3,363 533.3,525 640,444 	"/>
	<polygon class="st15" points="426.7,282.1 426.7,444 533.3,363.1 	"/>
	<polygon class="st18" points="746.7,363 746.7,525 853.3,444 	"/>
	<polygon class="st9" points="533.3,525 533.3,686.9 640,605.9 	"/>
	<polygon class="st18" points="746.7,525 746.7,686.9 853.3,605.9 	"/>
	<polygon class="st17" points="640,606.1 640,768 746.7,687 	"/>
	<polygon class="st13" points="1066.7,282.1 1066.7,444 1173.3,363.1 	"/>
	<polygon class="st6" points="1173.3,201.1 1173.3,363 1280,282.1 	"/>
	<polygon class="st15" points="746.7,363 746.7,525 853.3,444 	"/>
	<polygon class="st19" points="853.3,282.1 853.3,444 960,363.1 	"/>
	<polygon class="st6" points="853.3,120.2 853.3,282.1 960,201.2 	"/>
	<polygon class="st17" points="213.3,120.2 213.3,282.1 106.7,201.2 	"/>
	<polygon class="st2" points="106.7,39.2 106.7,201.1 0,120.2 	"/>
	<polygon class="st9" points="853.3,444 853.3,605.9 960,525 	"/>
	<polygon class="st17" points="853.3,606.1 853.3,768 960,687 	"/>
	<polygon class="st18" points="960,525.2 960,687.2 1066.7,606.2 	"/>
	<polygon class="st17" points="853.3,444 853.3,605.9 746.7,525 	"/>
	<polygon class="st13" points="106.7,525 106.7,686.9 0,605.9 	"/>
	<polygon class="st13" points="426.7,282.1 426.7,444 320,363.1 	"/>
	<polygon class="st16" points="426.7,444 426.7,605.9 320,525 	"/>
	<polygon class="st16" points="213.3,444 213.3,605.9 106.7,525 	"/>
	<polygon class="st17" points="213.3,282.1 213.3,444 106.7,363.1 	"/>
	<polygon class="st17" points="426.7,282.1 426.7,444 320,363.1 	"/>
	<polygon class="st17" points="426.7,120.2 426.7,282.1 320,201.2 	"/>
	<polygon class="st20" points="533.3,525 533.3,686.9 426.7,605.9 	"/>
	<polygon class="st21" points="533.3,363 533.3,525 426.7,444 	"/>
	<polygon class="st16" points="640,605.9 640,767.8 533.3,686.9 	"/>
	<polygon class="st18" points="213.3,605.9 213.3,767.8 106.7,686.9 	"/>
	<polygon class="st20" points="106.7,363 106.7,525 0,444 	"/>
	<polygon class="st10" points="426.7,767.8 426.7,929.7 320,848.8 	"/>
	<polygon class="st11" points="213.3,767.8 213.3,929.7 106.7,848.8 	"/>
	<polygon class="st16" points="106.7,525 106.7,686.9 0,605.9 	"/>
	<polygon class="st11" points="426.7,605.9 426.7,767.8 320,686.9 	"/>
	<polygon class="st18" points="320,525.2 320,687.2 213.3,606.2 	"/>
	<polygon class="st18" points="746.7,686.9 746.7,848.8 640,767.9 	"/>
	<polygon class="st10" points="640,929.7 640,1091.7 533.3,1010.7 	"/>
	<polygon class="st11" points="320,686.9 320,848.8 213.3,767.9 	"/>
	<polygon class="st20" points="960,686.9 960,848.8 853.3,767.9 	"/>
	<polygon class="st16" points="960,525 960,686.9 853.3,605.9 	"/>
	<polygon class="st9" points="1066.7,605.9 1066.7,767.8 960,686.9 	"/>
	<polygon class="st17" points="1066.7,444 1066.7,605.9 960,525 	"/>
	<polygon class="st12" points="320,848.8 320,1010.7 213.3,929.8 	"/>
	<polygon class="st20" points="106.7,1010.7 106.7,1172.6 0,1091.7 	"/>
	<polygon class="st10" points="106.7,848.8 106.7,1010.7 0,929.8 	"/>
	<polygon class="st12" points="426.7,929.7 426.7,1091.7 320,1010.7 	"/>
	<polygon class="st11" points="213.3,929.7 213.3,1091.7 106.7,1010.7 	"/>
	<polygon class="st12" points="533.3,848.8 533.3,1010.7 426.7,929.8 	"/>
	<polygon class="st12" points="533.3,1010.7 533.3,1172.6 426.7,1091.7 	"/>
	<polygon class="st12" points="640,1091.7 640,1253.6 533.3,1172.6 	"/>
	<polygon class="st20" points="746.7,1010.7 746.7,1172.6 640,1091.7 	"/>
	<polygon class="st16" points="746.7,1010.7 746.7,1172.6 640,1091.7 	"/>
	<polygon class="st10" points="853.3,1091.7 853.3,1253.6 746.7,1172.6 	"/>
	<polygon class="st10" points="853.3,929.7 853.3,1091.7 746.7,1010.7 	"/>
	<polygon class="st10" points="960,848.9 960,1010.8 853.3,929.9 	"/>
	<polygon class="st18" points="853.3,767.8 853.3,929.7 746.7,848.8 	"/>
	<polygon class="st10" points="746.7,848.8 746.7,1010.7 640,929.8 	"/>
	<polygon class="st12" points="640,768 640,929.9 533.3,848.9 	"/>
	<polygon class="st10" points="1066.7,1091.7 1066.7,1253.6 960,1172.6 	"/>
	<polygon class="st20" points="1173.3,1172.6 1173.3,1334.5 1066.7,1253.6 	"/>
	<polygon class="st10" points="1173.3,1011 1173.3,1172.9 1066.7,1092 	"/>
	<polygon class="st11" points="1066.7,768 1066.7,929.9 960,848.9 	"/>
	<polygon class="st10" points="1066.7,929.7 1066.7,1091.7 960,1010.7 	"/>
	<polygon class="st10" points="960,1010.7 960,1172.6 853.3,1091.7 	"/>
	<polygon class="st16" points="1280,1091.7 1280,1253.6 1173.3,1172.6 	"/>
	<polygon class="st20" points="426.7,1091.7 426.7,1253.6 320,1172.6 	"/>
	<polygon class="st20" points="213.3,1091.7 213.3,1253.6 106.7,1172.6 	"/>
	<polygon class="st20" points="106.7,1172.6 106.7,1334.5 0,1253.6 	"/>
	<polygon class="st20" points="320,1172.6 320,1334.5 213.3,1253.6 	"/>
	<polygon class="st20" points="320,1010.7 320,1172.6 213.3,1091.7 	"/>
	<polygon class="st18" points="746.7,525 746.7,686.9 640,605.9 	"/>
	<polygon class="st17" points="1066.7,282.1 1066.7,444 960,363.1 	"/>
	<polygon class="st6" points="1173.3,201.1 1173.3,363 1066.7,282.1 	"/>
	<polygon class="st4" points="1173.3,363 1173.3,525 1066.7,444 	"/>
	<polygon class="st6" points="1280,282.1 1280,444 1173.3,363.1 	"/>
	<polygon class="st13" points="746.7,363 746.7,525 640,444 	"/>
	<polygon class="st17" points="853.3,606.1 853.3,768 746.7,687 	"/>
	<polygon class="st17" points="960,363 960,525 853.3,444 	"/>
	<polygon class="st13" points="853.3,282.1 853.3,444 746.7,363.1 	"/>
	<polygon class="st7" points="213.3,-41.7 213.3,120.2 320,39.2 	"/>
	<polygon class="st17" points="213.3,120.2 213.3,282.1 320,201.2 	"/>
	<polygon class="st15" points="106.7,39.2 106.7,201.1 213.3,120.2 	"/>
	<polygon class="st6" points="213.3,-41.7 213.3,120.2 106.7,39.2 	"/>
	<polygon class="st5" points="426.7,-41.7 426.7,120.2 533.3,39.2 	"/>
	<polygon class="st5" points="533.3,39.2 533.3,201.1 640,120.2 	"/>
	<polygon class="st5" points="533.3,-122.7 533.3,39.2 426.7,-41.7 	"/>
	<polygon class="st5" points="533.3,39.2 533.3,201.1 426.7,120.2 	"/>
	<polygon class="st5" points="320,-122.7 320,39.2 426.7,-41.7 	"/>
	<polygon class="st6" points="533.3,-122.7 533.3,39.2 640,-41.7 	"/>
	<polygon class="st18" points="426.7,444 426.7,605.9 533.3,525 	"/>
	<polygon class="st13" points="426.7,605.9 426.7,767.8 533.3,686.9 	"/>
	<polygon class="st20" points="426.7,767.8 426.7,929.7 533.3,848.8 	"/>
	<polygon class="st17" points="960,686.9 960,848.8 1066.7,767.9 	"/>
	<polygon class="st10" points="1173.3,848.9 1173.3,1010.8 1066.7,929.8 	"/>
	<polygon class="st16" points="1280,767.9 1280,929.8 1173.3,848.9 	"/>
	<polygon class="st10" points="1280,930 1280,1091.9 1173.3,1010.9 	"/>
	<polygon class="st10" points="1173.3,848.9 1173.3,1010.8 1280,929.8 	"/>
	<polygon class="st12" points="320,848.8 320,1010.7 426.7,929.8 	"/>
	<polygon class="st16" points="320,1010.7 320,1172.6 426.7,1091.7 	"/>
	<polygon class="st16" points="106.7,1010.7 106.7,1172.6 213.3,1091.7 	"/>
	<polygon class="st10" points="640,1091.7 640,1253.6 746.7,1172.6 	"/>
	<polygon class="st20" points="426.7,1091.7 426.7,1253.6 533.3,1172.6 	"/>
	<polygon class="st16" points="213.3,1091.7 213.3,1253.6 320,1172.6 	"/>
	<polygon class="st16" points="0,1091.7 0,1253.6 106.7,1172.6 	"/>
	<polygon class="st12" points="0,767.8 0,929.9 106.7,848.9 	"/>
	<polygon class="st12" points="0,929.7 0,1091.7 106.7,1010.7 	"/>
	<polygon class="st16" points="106.7,848.8 106.7,1010.7 213.3,929.8 	"/>
	<polygon class="st16" points="320,1172.6 320,1334.5 426.7,1253.6 	"/>
	<polygon class="st20" points="533.3,1172.6 533.3,1334.5 426.7,1253.6 	"/>
	<polygon class="st12" points="746.7,1172.6 746.7,1334.5 640,1253.6 	"/>
	<polygon class="st16" points="960,1172.6 960,1334.5 853.3,1253.6 	"/>
	<polygon class="st12" points="533.3,1172.6 533.3,1334.5 640,1253.6 	"/>
	<polygon class="st22" points="746.7,1172.6 746.7,1334.5 853.3,1253.6 	"/>
	<polygon class="st16" points="960,1172.6 960,1334.5 1066.7,1253.6 	"/>
	<polygon class="st16" points="106.7,1172.6 106.7,1334.5 213.3,1253.6 	"/>
	<line class="st6" x1="0" y1="-689.4" x2="0" y2="1230.6"/>
	<line class="st6" x1="426.7" y1="-689.4" x2="426.7" y2="1230.6"/>
	<polygon class="st12" points="106.7,1010.7 106.7,1172.6 0,1091.7 	"/>
	<polygon class="st12" points="426.7,1091.7 426.7,1253.6 320,1172.6 	"/>
	<polygon class="st12" points="213.3,1091.7 213.3,1253.6 106.7,1172.6 	"/>
	<polygon class="st16" points="106.7,1172.6 106.7,1334.5 0,1253.6 	"/>
	<polygon class="st16" points="320,1172.6 320,1334.5 213.3,1253.6 	"/>
	<polygon class="st12" points="320,1010.7 320,1172.6 213.3,1091.7 	"/>
	<polygon class="st12" points="320,1010.7 320,1172.6 426.7,1091.7 	"/>
	<polygon class="st12" points="106.7,1010.7 106.7,1172.6 213.3,1091.7 	"/>
	<polygon class="st12" points="426.7,1091.7 426.7,1253.6 533.3,1172.6 	"/>
	<polygon class="st12" points="213.3,1091.7 213.3,1253.6 320,1172.6 	"/>
	<polygon class="st12" points="0,1091.7 0,1253.6 106.7,1172.6 	"/>
	<polygon class="st16" points="320,1172.6 320,1334.5 426.7,1253.6 	"/>
	<polygon class="st16" points="533.3,1172.6 533.3,1334.5 426.7,1253.6 	"/>
	<polygon class="st18" points="106.7,1172.6 106.7,1334.5 213.3,1253.6 	"/>
	<polygon class="st10" points="853.3,1091.7 853.3,1253.6 960,1172.6 	"/>
	<polygon class="st10" points="533.3,1010.7 533.3,1172.6 640,1091.7 	"/>
	<polygon class="st10" points="746.7,1010.7 746.7,1172.6 853.3,1091.7 	"/>
	<polygon class="st10" points="960,1010.7 960,1172.6 1066.7,1091.7 	"/>
	<polygon class="st10" points="1173.3,1010.7 1173.3,1172.6 1280,1091.7 	"/>
	<polygon class="st10" points="960,848.9 960,1010.8 1066.7,929.9 	"/>
	<polygon class="st12" points="426.7,929.7 426.7,1091.7 533.3,1010.7 	"/>
	<polygon class="st10" points="640,929.7 640,1091.7 746.7,1010.7 	"/>
	<polygon class="st12" points="853.3,929.7 853.3,1091.7 960,1010.7 	"/>
	<polygon class="st11" points="640,767.8 640,929.7 746.7,848.8 	"/>
	<polygon class="st10" points="746.7,848.8 746.7,1010.7 853.3,929.8 	"/>
	<polygon class="st20" points="853.3,767.8 853.3,929.7 960,848.8 	"/>
	<polygon class="st17" points="746.7,686.9 746.7,848.8 853.3,767.9 	"/>
	<polygon class="st20" points="1173.3,686.9 1173.3,848.8 1066.7,767.9 	"/>
	<polygon class="st10" points="1066.7,767.8 1066.7,929.7 1173.3,848.8 	"/>
	<polygon class="st17" points="1173.3,686.9 1173.3,848.8 1280,767.9 	"/>
	<polygon class="st16" points="1066.7,605.9 1066.7,767.8 1173.3,686.9 	"/>
	<polygon class="st11" points="426.7,605.9 426.7,767.8 533.3,686.9 	"/>
	<polygon class="st11" points="320,687 320,848.9 426.7,768 	"/>
	<polygon class="st12" points="213.3,929.7 213.3,1091.7 320,1010.7 	"/>
	<polygon class="st16" points="533.3,848.8 533.3,1010.7 640,929.8 	"/>
	<polygon class="st20" points="533.3,848.8 533.3,1010.7 640,929.8 	"/>
	<polygon class="st16" points="106.7,525 106.7,686.9 213.3,605.9 	"/>
	<polygon class="st17" points="106.7,363 106.7,525 213.3,444 	"/>
	<polygon class="st16" points="320,525.2 320,687.2 426.7,606.2 	"/>
	<polygon class="st16" points="213.3,606.2 213.3,768.1 320,687.2 	"/>
	<polygon class="st5" points="640,-41.7 640,120.2 533.3,39.2 	"/>
	<polygon class="st6" points="640,120.2 640,282.1 533.3,201.2 	"/>
	<polygon class="st3" points="320,-122.7 320,39.2 213.3,-41.7 	"/>
	<polygon class="st13" points="746.7,201.1 746.7,363 853.3,282.1 	"/>
	<polygon class="st7" points="640,120.2 640,282.1 746.7,201.2 	"/>
	<polygon class="st6" points="746.7,39.2 746.7,201.1 853.3,120.2 	"/>
	<polygon class="st4" points="746.7,201.1 746.7,363 853.3,282.1 	"/>
	<polygon class="st4" points="960,201.1 960,363 1066.7,282.1 	"/>
	<polygon class="st4" points="1066.7,282.1 1066.7,444 1173.3,363.1 	"/>
	<polygon class="st4" points="1173.3,363 1173.3,525 1280,444 	"/>
	<polygon class="st17" points="960,363 960,525 1066.7,444 	"/>
	<polygon class="st11" points="1066.7,929.7 1066.7,1091.7 1173.3,1010.7 	"/>
	<polygon class="st10" points="1066.7,1091.7 1066.7,1253.6 1173.3,1172.6 	"/>
	<polygon class="st16" points="1173.3,1172.6 1173.3,1334.5 1280,1253.6 	"/>
	<polygon class="st6" points="746.7,39.2 746.7,201.1 640,120.2 	"/>
	<polygon class="st15" points="746.7,201.1 746.7,363 640,282.1 	"/>
	<polygon class="st4" points="960,201.1 960,363 853.3,282.1 	"/>
	<polygon class="st17" points="106.7,201.1 106.7,363 0,282.1 	"/>
	<polygon class="st5" points="960,-122.7 960,39.2 853.3,-41.7 	"/>
	<polygon class="st5" points="746.7,-122.7 746.7,39.2 640,-41.7 	"/>
	<polygon class="st5" points="960,39.2 960,201.1 853.3,120.2 	"/>
	<polygon class="st15" points="746.7,363 746.7,525 640,444 	"/>
	<polygon class="st15" points="640,282.1 640,444 533.3,363.1 	"/>
	<polygon class="st13" points="533.3,201.1 533.3,363 426.7,282.1 	"/>
	<polygon class="st17" points="1173.3,525 1173.3,686.9 1066.7,605.9 	"/>
	<polygon class="st6" points="746.7,39.2 746.7,201.1 640,120.2 	"/>
	<polygon class="st4" points="853.3,-41.7 853.3,120.2 960,39.2 	"/>
	<polygon class="st5" points="960,39.2 960,201.1 1066.7,120.2 	"/>
	<polygon class="st5" points="746.7,39.2 746.7,201.1 853.3,120.2 	"/>
	<polygon class="st5" points="853.3,-41.7 853.3,120.2 746.7,39.2 	"/>
	<polygon class="st5" points="640,-41.7 640,120.2 746.7,39.2 	"/>
	<polygon class="st5" points="746.7,-122.7 746.7,39.2 853.3,-41.7 	"/>
	<polygon class="st0" points="1173.3,-122.7 1173.3,39.2 1066.7,-41.7 	"/>
	<polygon class="st6" points="1066.7,-41.7 1066.7,120.2 1173.3,39.2 	"/>
	<polygon class="st5" points="1066.7,120.2 1066.7,282.1 1173.3,201.2 	"/>
	<polygon class="st5" points="960,-122.7 960,39.2 1066.7,-41.7 	"/>
	<polygon class="st6" points="1066.7,-41.7 1066.7,120.2 960,39.2 	"/>
	<polygon class="st6" points="1066.7,120.2 1066.7,282.1 960,201.2 	"/>
	<polygon class="st6" points="853.3,120.2 853.3,282.1 746.7,201.2 	"/>
	<polygon class="st0" points="1173.3,-122.7 1173.3,39.2 1280,-41.7 	"/>
	<polygon class="st0" points="1280,-41.7 1280,120.2 1173.3,39.2 	"/>
	<polygon class="st15" points="640,282.1 640,444 746.7,363.1 	"/>
</g>
<rect x="367" y="0" transform="matrix(-1 5.386923e-11 -5.386923e-11 -1 1133.9319 720)" class="st23" width="400" height="720"/>
</svg>
